<svg xmlns="http://www.w3.org/2000/svg" width="298" height="44" viewBox="0 0 298 44"><defs><clipPath id="d"><rect width="298" height="44" fill="none"/></clipPath></defs><g clip-path="url(#d)"><path fill="#2c3e50" fill-rule="evenodd" d="M230.49 35.15v-13.8c1.17-1.04 2.2-1.45 3.74-1.45.76 0 1.35.09 2.58.46v-5.71c-.93-.29-1.31-.34-1.92-.34-1.64 0-3.23 1-4.49 2.86h-.3v-2.73h-6.03v20.72h6.43ZM6.8 34.67l2.01-6.59h7.99l1.88 6.59h7.4L18.74 9.5c-.42-1.48-1.36-2.17-2.94-2.17H5.32V9.7h.89c1.1 0 1.67.41 1.67 1.23 0 .54-.11.98-.54 2.21L0 34.68h6.8Zm168.62-12.71c0-12.56-9.61-21.95-22.5-21.95s-22.55 9.39-22.55 21.96 9.65 22.01 22.55 22.01 22.5-9.38 22.5-22.01Zm-4.44 0c0-10.32-7.64-17.87-18.06-17.87s-18.05 7.55-18.05 17.87 7.6 17.91 18.05 17.91 18.06-7.53 18.06-17.91m-23.9 11.6V13.7h-3.65c-1.82 0-2.53.7-2.53 2.46v17.42h6.18Zm11.67 0h6.13v-17.4c0-1.76-.66-2.46-2.52-2.46h-3.61v19.87Zm-2.77 0V10.51c0-1.85-.62-2.46-2.52-2.46h-5.5v2.55h.33l.59.03c.22 0 .43.13.58.29.27.29.34.58.34 1.18v21.47h6.17Zm-35.39-3.18h-9.17l8.75-11.98v-4.22h-13.7c-1.54 0-2.26.7-2.26 2.21v3.72h2.44v-.36c0-.94.51-1.39 1.56-1.39h4.71l-8.83 12.08v4.23h16.5zm-31.23 4.29V20.83c1.09-1.19 2.23-1.72 3.53-1.72 1.39 0 1.72.53 1.72 2.58v12.98h6.54V20.74c0-3.25-.24-4.27-1.29-5.38-.88-.93-2.23-1.43-3.95-1.43-2.55 0-4.37.78-6.8 2.99v-.82c0-1.27-.67-1.93-2-1.93H80.9v2.34h.38c1.09 0 1.55.49 1.55 1.56v16.59h6.55ZM62.74 20.04c2.18-1.01 4.57-1.6 6.47-1.6 1.76 0 2.39.63 2.39 2.43v.43c-2.69.43-3.53.6-5.04.92-.88.2-1.68.44-2.47.78-2.64 1.02-3.9 3.04-3.9 6.11 0 3.88 1.73 5.76 5.29 5.76 1.29 0 2.48-.23 3.53-.64.92-.41 1.46-.74 2.82-1.77v.29c0 1.28.67 1.92 1.98 1.92h6.01v-2.21h-.29c-1.13 0-1.56-.49-1.56-1.8v-9.75c0-5.21-1.84-7.01-7.17-7.01-1.73 0-3.41.19-5.03.57-1.65.37-2.49.7-4.46 1.64l1.46 3.93Zm8.86 4.81c-1.63.29-2.76.6-3.65.97-1.18.45-1.52 1.16-1.52 2.66s.43 2.09 1.6 2.09 2.47-.65 3.57-1.76v-3.97Zm-14.44 9.83V16.29c0-1.32-.8-2.09-2.1-2.09h-6.38v2.34h.37c1.1 0 1.56.49 1.56 1.56v16.59h6.55Zm.12-24.83c0-1.85-1.38-2.95-3.77-2.95s-3.78 1.11-3.78 2.95 1.44 2.94 3.78 2.94 3.77-1.11 3.77-2.94m-11.5 24.83V9.44c0-1.31-.8-2.09-2.11-2.09h-6.46v2.37h.42c1.09 0 1.55.44 1.55 1.52v23.44zm-11.2 0V9.44c0-1.31-.8-2.09-2.11-2.09h-6.46v2.37h.42c1.09 0 1.55.44 1.55 1.52v23.44zM15.77 23.62l-2.76-10.05-3.14 10.05h5.91ZM184.04 34.7h6.22v-9.6h4.31c2.23.03 4.54-.98 6.38-3.07 1.5-1.71 1.79-4.23 1.76-7.17-.02-2.46-.69-4.67-2.84-6.07-2.41-1.56-5.85-1.39-9.62-1.39h-6.22v27.3Zm6.22-14.03c3.71.13 5.74-.39 6.4-3.21.27-1.17.28-2.14.08-2.94-.74-3.13-3.5-2.68-6.49-2.68v8.84Zm46.72 4.4c0 8.44 4.49 10.86 8.91 10.39 1.48-.16 2.85-.81 4.07-2.06v10.1h6.06V14.27h-6.06v.93c-2.98-1.8-6.76-2.16-10.46 1.37-2.22 2.11-2.52 5.35-2.52 8.5m12.98-5.57c-1.99-1.72-4.65-1.92-5.95.47-1 1.83-.93 3.36-.83 5.09.17 3.24.8 5.25 3.92 5.3.12 0 .24-.02.37-.03v-.03c1.47-.28 2.35-1.36 2.5-3.02v-7.79Zm-29.03 15.65V22.21c0-3.98-.5-5.54-2.28-6.82-1.33-.91-2.89-1.33-5.22-1.33-3.61 0-6.71.79-9.43 2.4l1.37 4.08.5-.27c1.83-.86 2.18-.99 3.4-1.23.81-.16 1.58-.23 2.3-.23 2.12 0 3.05.74 3.05 2.44v.95h-.58c-7.39 0-11.04 2.44-11.04 7.41 0 3.72 2 5.75 5.69 5.75 1.95 0 3.7-.5 4.89-1.43.24-.22.58-.54 1.04-1.03h.26v2.28h6.05Zm-6.32-9.17h-1.04c-.86 0-1.96.25-2.76.58-.93.41-1.44 1.24-1.44 2.37 0 1.37.72 2.07 2.08 2.07s2.33-.45 3.18-1.41v-3.61Zm56.67-11.8v13.88c-1.31 1.28-2.09 1.69-3.38 1.69-1.57 0-2.05-.79-2.05-3.26V14.18h-6.4v14.48c0 4.34 1.79 6.49 5.44 6.49 2.45 0 4.66-.21 6.49-2.23h.26v1.98h6.02V14.18h-6.37Zm24.88 15.25c-1.99 1.21-3.4 1.62-5.3 1.62-3.41 0-4.84-1.37-5.02-4.61h12.15v-1.2c0-7.46-2.93-11.18-8.7-11.18s-9.89 4.4-9.89 11.01 3.77 10.36 10.05 10.36c2.3 0 4.37-.42 6.15-1.21.6-.28.93-.45 1.79-.99l-1.23-3.81Zm-4.45-6.83h-5.82c.04-2.81 1.1-4.32 3.1-4.32 1.83 0 2.72 1.38 2.72 4.18v.13Z"/></g></svg>
