<?xml version="1.0" encoding="UTF-8"?>
<svg id="Camada_1" data-name="Camada 1" xmlns="http://www.w3.org/2000/svg" viewBox="0 0 850.39 310.46">
  <g>
    <g>
      <polygon points="193.92 117.72 193.92 78.29 233.61 78.29 233.61 117.72 236.29 117.72 236.29 75.6 191.23 75.6 191.23 117.72 193.92 117.72"/>
      <polygon points="233.61 198.89 233.61 231.95 196.14 231.95 170.96 198.89 167.59 198.89 194.81 234.63 236.29 234.63 236.29 198.89 233.61 198.89"/>
      <polygon points="127.89 198.89 127.89 231.95 87.97 231.95 87.97 78.29 125.66 78.29 155.62 117.72 158.99 117.72 127 75.6 85.29 75.6 85.29 234.63 130.57 234.63 130.57 198.89 127.89 198.89"/>
    </g>
    <g>
      <path d="M262.51,117.72c.64-1.22,1.31-2.43,2.03-3.62,7.2-12,17.27-21.55,29.93-28.39,12.68-6.85,27.17-10.32,43.08-10.32s30.21,3.47,42.97,10.32c12.74,6.84,22.84,16.4,30.04,28.39.71,1.19,1.38,2.4,2.03,3.62h3.03c-.85-1.7-1.77-3.37-2.75-5-7.45-12.42-17.9-22.3-31.07-29.38h0c-13.15-7.06-28.03-10.64-44.24-10.64s-31.28,3.58-44.35,10.64c-13.09,7.08-23.51,16.96-30.96,29.37-.98,1.64-1.9,3.31-2.75,5h3.03Z"/>
      <path d="M408.68,198.89c-7.04,10.76-16.5,19.41-28.18,25.75-12.75,6.92-27.2,10.43-42.96,10.43s-30.4-3.51-43.07-10.43c-11.61-6.34-21.03-14.99-28.07-25.75h-3.19c7.37,11.82,17.44,21.27,29.97,28.11,13.07,7.14,28,10.76,44.36,10.76s31.1-3.62,44.24-10.76c12.6-6.84,22.71-16.29,30.08-28.11h-3.19Z"/>
    </g>
    <g>
      <polygon points="441.11 117.72 426.03 78.29 472.62 78.29 485.63 117.72 488.46 117.72 474.56 75.6 422.13 75.6 438.23 117.72 441.11 117.72"/>
      <polygon points="532.93 117.72 545.94 78.29 590.51 78.29 575.27 117.72 578.15 117.72 594.43 75.6 543.99 75.6 530.1 117.72 532.93 117.72"/>
      <polygon points="543.89 198.89 531.11 231.95 484.78 231.95 472.14 198.89 469.26 198.89 482.93 234.63 532.95 234.63 546.77 198.89 543.89 198.89"/>
    </g>
    <path d="M753.87,112.72c-7.45-12.42-17.9-22.3-31.07-29.38h0c-13.15-7.06-28.03-10.64-44.24-10.64s-31.28,3.58-44.35,10.64c-13.09,7.08-23.51,16.96-30.96,29.37-.98,1.64-1.9,3.31-2.75,5h3.03c.64-1.22,1.31-2.43,2.03-3.62,7.2-12,17.27-21.55,29.93-28.39,12.68-6.85,27.17-10.32,43.08-10.32s30.21,3.47,42.97,10.32c12.74,6.84,22.84,16.4,30.04,28.39,7.2,12,10.85,25.69,10.85,40.68s-3.65,28.99-10.85,41.13c-7.2,12.15-17.31,21.81-30.04,28.72-12.75,6.92-27.2,10.43-42.96,10.43s-30.4-3.51-43.07-10.43c-11.61-6.34-21.03-14.99-28.07-25.75h-3.19c7.37,11.82,17.44,21.27,29.97,28.11,13.07,7.14,28,10.76,44.36,10.76s31.1-3.62,44.24-10.76c13.17-7.15,23.62-17.14,31.07-29.71,7.45-12.57,11.23-26.87,11.23-42.5s-3.78-29.64-11.23-42.06Z"/>
  </g>
  <g>
    <path d="M144.65,188.49l-3.44-9.41h-23.77l-3.53,9.41h-17.98l25.12-58.88h17.98l24.28,58.88h-18.65ZM122.3,166.31h14.28l-7.06-19.24-7.22,19.24Z"/>
    <path d="M207.48,129.6h15.96v58.88h-14.87l-24.95-32.76v32.76h-16.04v-58.88h14.95l24.95,32.84v-32.84Z"/>
    <path d="M233.35,129.6h17.47v23.44h20.92v-23.44h17.47v58.88h-17.47v-21.92h-20.92v21.92h-17.47v-58.88Z"/>
    <path d="M342.21,188.49l-3.44-9.41h-23.77l-3.53,9.41h-17.98l25.12-58.88h17.97l24.28,58.88h-18.65ZM319.87,166.31h14.28l-7.06-19.24-7.22,19.24Z"/>
    <path d="M405.04,129.6h15.96v58.88h-14.87l-24.95-32.76v32.76h-16.04v-58.88h14.95l24.95,32.84v-32.84Z"/>
    <path d="M469.38,158h15.04v23.94c-3.19,2.24-7.14,4.09-11.84,5.54-4.7,1.46-9.16,2.18-13.36,2.18-5.99,0-11.4-1.33-16.21-3.99-4.82-2.66-8.6-6.31-11.34-10.96-2.74-4.65-4.12-9.88-4.12-15.71s1.41-10.97,4.24-15.62c2.83-4.65,6.75-8.29,11.76-10.92,5.01-2.63,10.63-3.95,16.84-3.95,4.48,0,8.96.81,13.44,2.44,4.48,1.62,8.29,3.84,11.42,6.64l-9.91,11.93c-2.02-1.96-4.38-3.53-7.1-4.7-2.72-1.18-5.36-1.76-7.94-1.76-2.8,0-5.33.7-7.6,2.1-2.27,1.4-4.05,3.32-5.33,5.75-1.29,2.44-1.93,5.14-1.93,8.11s.66,5.77,1.97,8.23c1.32,2.47,3.12,4.4,5.42,5.8,2.3,1.4,4.84,2.1,7.64,2.1,2.52,0,5.49-.81,8.9-2.44v-14.7Z"/>
    <path d="M536.16,188.49l-3.44-9.41h-23.77l-3.53,9.41h-17.98l25.12-58.88h17.97l24.28,58.88h-18.65ZM513.82,166.31h14.28l-7.06-19.24-7.22,19.24Z"/>
    <path d="M599.91,131.41c3.42,1.2,6.05,2.93,7.9,5.17,1.85,2.24,2.77,4.87,2.77,7.9s-.9,5.6-2.69,7.9c-1.79,2.3-4.23,3.89-7.31,4.79,3.58.73,6.45,2.45,8.61,5.17,2.15,2.72,3.23,5.95,3.23,9.7,0,3.3-.95,6.2-2.86,8.69-1.9,2.49-4.61,4.41-8.11,5.75-3.5,1.34-7.57,2.02-12.22,2.02h-30.16v-58.88h28.9c4.54,0,8.51.6,11.93,1.81ZM591.18,151.32c1.01-.92,1.51-2.17,1.51-3.74s-.5-2.7-1.51-3.57c-1.01-.87-2.38-1.3-4.12-1.3h-10.58v10h10.58c1.74,0,3.11-.46,4.12-1.39ZM592.4,173.96c1.32-1.01,1.97-2.38,1.97-4.12,0-1.62-.66-2.9-1.97-3.82-1.32-.92-3.09-1.36-5.33-1.3h-10.58v10.67h10.58c2.24.06,4.02-.42,5.33-1.43Z"/>
    <path d="M661.82,188.49l-3.44-9.41h-23.77l-3.53,9.41h-17.98l25.12-58.88h17.97l24.28,58.88h-18.65ZM639.47,166.31h14.28l-7.06-19.24-7.22,19.24Z"/>
    <path d="M700.79,172.11c1.9,2.02,4.28,3.02,7.14,3.02s5.09-.99,6.89-2.98c1.79-1.99,2.69-4.66,2.69-8.02v-34.52h17.47v34.52c0,5.15-1.11,9.65-3.32,13.48-2.21,3.84-5.36,6.8-9.45,8.9-4.09,2.1-8.85,3.15-14.28,3.15s-10.3-1.05-14.45-3.15c-4.15-2.1-7.35-5.07-9.62-8.9-2.27-3.84-3.4-8.33-3.4-13.48v-34.52h17.47v34.52c0,3.3.95,5.96,2.86,7.98Z"/>
    <rect x="680.45" y="108.61" width="54.53" height="13.83"/>
  </g>
</svg>
