<svg xmlns="http://www.w3.org/2000/svg" width="198" height="27.176" viewBox="0 0 198 27.176"><defs><clipPath id="clip-path-wtorre"><rect width="198" height="27.176" fill="none"/></clipPath></defs><g clip-path="url(#clip-path-wtorre)"><path fill="#2c3e50" fill-rule="evenodd" d="M41.13.53,38.442.543a3.526,3.526,0,0,0-3.328,2.671l-.007.009S31.285,17.649,30.94,18.96L26.63,3.282a3.523,3.523,0,0,0-1.884-2.246c.006,0,.012,0,.018,0A4.732,4.732,0,0,0,23.081.7c-.32,0-3.7-.019-3.745-.019A3.673,3.673,0,0,0,15.81,3.445l-.01.01-4.379,15.88v0c-.025-.093-.051-.187-.073-.275C11.066,17.986,7.44,4.3,6.464.6H0C0,.624,5.993,22.63,5.993,22.63l.01.007A3.616,3.616,0,0,0,9.535,25.4l3.741-.006a4.773,4.773,0,0,0,1.654-.309h0a3.713,3.713,0,0,0,2.09-2.411s3.8-14.35,4.132-15.642l4.32,15.73A3.58,3.58,0,0,0,27.407,25.1a.127.127,0,0,0,.047.009l-.021.006a4.278,4.278,0,0,0,1.549.278c.325,0,3.7.012,3.744.012a3.619,3.619,0,0,0,3.531-2.763l.01-.007S40.231,8.445,40.853,6.212h12.5v19.68h6.2V6.293H73.046V.57L41.13.533ZM11.425,19.354c.024.1.05.185.076.279-.026-.1-.053-.188-.076-.279m1.937,4.771c.049.063.1.126.144.184-.049-.059-.1-.119-.144-.184m.276.334a2.671,2.671,0,0,0,.268.253,2.671,2.671,0,0,1-.268-.253m.935.6a.363.363,0,0,0,.043.009.363.363,0,0,1-.043-.009m-.594-.281c.019.013.037.022.054.035-.018-.013-.037-.022-.054-.035m.269.165.094.041c-.031-.013-.063-.026-.094-.041m16.637-5.774c-.115.435-.247.911-.4,1.4.132-.432.266-.9.4-1.4m-.494,1.7c-.01.034-.022.068-.032.1.01-.034.022-.068.032-.1" transform="translate(0 0.249)"/><path fill="#2c3e50" fill-rule="evenodd" d="M123.559,25.283a13.15,13.15,0,0,1-.736-3.2l0-.024c-.367-2.535-.782-5.393-4.627-7.674a9.806,9.806,0,0,0,3.7-2.052,6.584,6.584,0,0,0-.091-9.014C118.937.461,113.31.5,109.588.523H95.257V26.058h6.357V15.64h7.08c7.235,0,7.98,4.683,8.772,9.655l.122.763h6.285l-.315-.773Zm-9.416-13.775a2.147,2.147,0,0,1-.548.068c-.119,0-11.693.012-11.693.012V4.409h10.284c2.471,0,5.112.977,5.112,3.719a3.945,3.945,0,0,1-3.156,3.381" transform="translate(44.755 0.243)"/><path fill="#2c3e50" fill-rule="evenodd" d="M136.35,4.7l6.841.15V.407l-.55-.035c-12.11-.778-19.127.392-22.746,3.791-2.18,2.05-3.24,4.862-3.24,8.593a13.439,13.439,0,0,0,2.99,9.128c2.6,2.979,6.827,4.489,12.566,4.489h10.971V22.044l-7.157-.025-.425,0c-5.535,0-11.889-.733-11.889-6.454v-.319H143V10.736H123.711v-.4c0-3.742,4.255-5.64,12.639-5.64" transform="translate(54.809 0.066)"/><path fill="#2c3e50" fill-rule="evenodd" d="M66.044,0h-.038A18.041,18.041,0,0,0,54.536,3.942a12.493,12.493,0,0,0-4.828,9.688c.021,7.47,7.337,13.546,16.312,13.546h.046c9-.022,16.312-6.134,16.3-13.621S75.027,0,66.044,0m0,22.381c-5.256,0-9.541-3.933-9.552-8.769s4.267-8.8,9.53-8.812h.026A9.894,9.894,0,0,1,72.8,7.39a8.4,8.4,0,0,1,2.777,6.175c.007,4.845-4.267,8.8-9.539,8.816" transform="translate(23.355 0)"/><path fill="#2c3e50" fill-rule="evenodd" d="M102.159,25.283a13.049,13.049,0,0,1-.739-3.228c-.37-2.535-.789-5.394-4.627-7.674a9.773,9.773,0,0,0,3.7-2.05,6.585,6.585,0,0,0-.082-9.016C97.535.462,91.91.5,88.185.523H73.856V26.059h6.359V15.641h7.08c3.294,0,5.455.951,6.8,2.991,1.2,1.817,1.59,4.28,1.968,6.664l.125.763h6.282l-.315-.773Zm-8.948-13.9a3.431,3.431,0,0,1-1.136.188L80.5,11.587V4.41H90.786c2.471,0,5.112.977,5.112,3.719a3.769,3.769,0,0,1-2.687,3.259" transform="translate(34.7 0.243)"/></g></svg>
